<svg width="14" height="17" viewBox="0 0 14 17" fill="none" xmlns="http://www.w3.org/2000/svg">
<path d="M1.5 7.45835C1.74312 7.45835 1.97628 7.5681 2.14818 7.76345C2.32009 7.9588 2.41667 8.22375 2.41667 8.50002V15.7917C2.41667 16.068 2.32009 16.3329 2.14818 16.5283C1.97628 16.7236 1.74312 16.8334 1.5 16.8334C1.25689 16.8334 1.02373 16.7236 0.851821 16.5283C0.679913 16.3329 0.583336 16.068 0.583336 15.7917V8.50002C0.583336 8.22375 0.679913 7.9588 0.851821 7.76345C1.02373 7.5681 1.25689 7.45835 1.5 7.45835ZM6.08334 1.20835V15.7917C6.08334 16.068 6.17991 16.3329 6.35182 16.5283C6.52373 16.7236 6.75689 16.8334 7 16.8334C7.24312 16.8334 7.47627 16.7236 7.64818 16.5283C7.82009 16.3329 7.91667 16.068 7.91667 15.7917V1.20835C7.91667 0.932087 7.82009 0.667135 7.64818 0.471784C7.47627 0.276434 7.24312 0.166687 7 0.166687C6.75689 0.166687 6.52373 0.276434 6.35182 0.471784C6.17991 0.667135 6.08334 0.932087 6.08334 1.20835ZM11.5833 4.85419V15.7917C11.5833 16.068 11.6799 16.3329 11.8518 16.5283C12.0237 16.7236 12.2569 16.8334 12.5 16.8334C12.7431 16.8334 12.9763 16.7236 13.1482 16.5283C13.3201 16.3329 13.4167 16.068 13.4167 15.7917V4.85419C13.4167 4.57792 13.3201 4.31297 13.1482 4.11762C12.9763 3.92227 12.7431 3.81252 12.5 3.81252C12.2569 3.81252 12.0237 3.92227 11.8518 4.11762C11.6799 4.31297 11.5833 4.57792 11.5833 4.85419Z" fill="white"/>
</svg>
